<svg width="78" height="18" viewBox="0 0 78 18" fill="none" xmlns="http://www.w3.org/2000/svg">
<mask id="path-1-outside-1_1704_3777" maskUnits="userSpaceOnUse" x="21.5" y="2.51819" width="56" height="14" fill="black">
<rect fill="white" x="21.5" y="2.51819" width="56" height="14"/>
<path d="M22.5 5.57195V3.51819H32.1763V5.57195H28.5692V15.3H26.107V5.57195H22.5Z"/>
<path d="M36.2443 15.4726C35.3354 15.4726 34.553 15.2885 33.8972 14.9203C33.2452 14.5483 32.7428 14.0229 32.3899 13.344C32.0371 12.6614 31.8607 11.8541 31.8607 10.9221C31.8607 10.0131 32.0371 9.21542 32.3899 8.52891C32.7428 7.84241 33.2394 7.30739 33.8799 6.92387C34.5242 6.54035 35.2798 6.34859 36.1465 6.34859C36.7295 6.34859 37.2722 6.44255 37.7746 6.63048C38.2808 6.81457 38.7219 7.09262 39.0977 7.46464C39.4774 7.83665 39.7727 8.30455 39.9837 8.86833C40.1946 9.42827 40.3001 10.0841 40.3001 10.8358V11.5089H32.8387V9.99013H37.9932C37.9932 9.63729 37.9165 9.32472 37.7631 9.05242C37.6097 8.78012 37.3968 8.56727 37.1245 8.41386C36.8561 8.25661 36.5435 8.17799 36.1868 8.17799C35.8148 8.17799 35.485 8.26428 35.1973 8.43687C34.9135 8.60562 34.6911 8.83381 34.53 9.12146C34.3689 9.40526 34.2865 9.72167 34.2826 10.0707V11.5146C34.2826 11.9519 34.3632 12.3296 34.5242 12.6479C34.6892 12.9663 34.9212 13.2117 35.2203 13.3843C35.5195 13.5569 35.8742 13.6432 36.2846 13.6432C36.5569 13.6432 36.8062 13.6048 37.0325 13.5281C37.2588 13.4514 37.4524 13.3364 37.6135 13.183C37.7746 13.0296 37.8973 12.8416 37.9817 12.6192L40.2483 12.7688C40.1333 13.3134 39.8974 13.7889 39.5407 14.1955C39.1879 14.5982 38.7315 14.9126 38.1715 15.1389C37.6154 15.3614 36.973 15.4726 36.2443 15.4726Z"/>
<path d="M45.6669 15.4726C44.7617 15.4726 43.9832 15.2808 43.3312 14.8973C42.683 14.5099 42.1845 13.973 41.8355 13.2865C41.4903 12.6 41.3177 11.8099 41.3177 10.9163C41.3177 10.0112 41.4922 9.21734 41.8412 8.53467C42.1941 7.84816 42.6945 7.31315 43.3427 6.92962C43.9909 6.54227 44.7617 6.34859 45.6553 6.34859C46.4262 6.34859 47.1012 6.48857 47.6803 6.76854C48.2595 7.04852 48.7178 7.44163 49.0553 7.94788C49.3928 8.45413 49.5788 9.04859 49.6133 9.73126H47.3007C47.2355 9.29021 47.0629 8.93545 46.7829 8.66698C46.5068 8.39468 46.1443 8.25853 45.6956 8.25853C45.3159 8.25853 44.9842 8.36208 44.7004 8.56918C44.4204 8.77245 44.2018 9.06968 44.0445 9.46087C43.8873 9.85207 43.8087 10.3257 43.8087 10.8818C43.8087 11.4456 43.8854 11.925 44.0388 12.32C44.196 12.7151 44.4166 13.0161 44.7004 13.2232C44.9842 13.4303 45.3159 13.5339 45.6956 13.5339C45.9756 13.5339 46.2268 13.4764 46.4492 13.3613C46.6755 13.2462 46.8615 13.0794 47.0073 12.8608C47.1568 12.6384 47.2546 12.3718 47.3007 12.0612H49.6133C49.5749 12.7362 49.3909 13.3306 49.061 13.8445C48.735 14.3546 48.2844 14.7535 47.7091 15.0411C47.1338 15.3288 46.4531 15.4726 45.6669 15.4726Z"/>
<path d="M53.4081 10.1915V15.3H50.9574V3.51819H53.3391V8.02266H53.4426C53.642 7.50107 53.9642 7.09262 54.4091 6.79731C54.854 6.49816 55.412 6.34859 56.0832 6.34859C56.6968 6.34859 57.2318 6.48282 57.6882 6.75129C58.1484 7.01592 58.5051 7.39752 58.7582 7.8961C59.0152 8.39084 59.1418 8.98339 59.1379 9.67373V15.3H56.6872V10.1109C56.6911 9.56634 56.553 9.14255 56.273 8.83957C55.9969 8.53658 55.6095 8.38509 55.1109 8.38509C54.7773 8.38509 54.482 8.45604 54.225 8.59795C53.9719 8.73985 53.7724 8.94695 53.6267 9.21925C53.4848 9.48772 53.4119 9.8118 53.4081 10.1915Z"/>
<path d="M60.7955 15.3V13.8388L65.1217 8.48289V8.41961H60.9451V6.46364H68.0729V8.05718L64.0114 13.2808V13.344H68.2225V15.3H60.7955Z"/>
<path d="M72.3912 15.4668C71.8274 15.4668 71.325 15.369 70.884 15.1734C70.4429 14.974 70.0939 14.6806 69.8369 14.2933C69.5838 13.9021 69.4572 13.415 69.4572 12.832C69.4572 12.3411 69.5474 11.9288 69.7276 11.5952C69.9079 11.2615 70.1533 10.993 70.464 10.7898C70.7746 10.5865 71.1275 10.4331 71.5225 10.3296C71.9214 10.226 72.3394 10.1531 72.7766 10.1109C73.2906 10.0573 73.7048 10.0074 74.0192 9.96137C74.3337 9.91151 74.5619 9.83864 74.7038 9.74276C74.8457 9.64688 74.9167 9.50498 74.9167 9.31705V9.28254C74.9167 8.91819 74.8016 8.6363 74.5715 8.43687C74.3452 8.23744 74.0231 8.13772 73.605 8.13772C73.164 8.13772 72.8131 8.23552 72.5523 8.43111C72.2915 8.62288 72.1189 8.8645 72.0345 9.15597L69.7679 8.97188C69.883 8.43495 70.1092 7.97089 70.4467 7.57969C70.7842 7.18467 71.2195 6.88168 71.7526 6.67074C72.2896 6.45597 72.9109 6.34859 73.6166 6.34859C74.1075 6.34859 74.5773 6.40611 75.026 6.52117C75.4786 6.63623 75.8793 6.81457 76.2283 7.05619C76.5812 7.29781 76.8592 7.60846 77.0625 7.98815C77.2658 8.364 77.3674 8.81464 77.3674 9.34006V15.3H75.0433V14.0747H74.9742C74.8323 14.3508 74.6425 14.5943 74.4047 14.8053C74.1669 15.0124 73.8812 15.1754 73.5475 15.2943C73.2139 15.4093 72.8284 15.4668 72.3912 15.4668ZM73.093 13.7755C73.4536 13.7755 73.7719 13.7046 74.048 13.5626C74.3242 13.4169 74.5408 13.2213 74.6981 12.9759C74.8553 12.7304 74.934 12.4524 74.934 12.1417V11.204C74.8572 11.2538 74.7518 11.2999 74.6175 11.3421C74.4871 11.3804 74.3395 11.4168 74.1746 11.4514C74.0097 11.482 73.8447 11.5108 73.6798 11.5376C73.5149 11.5607 73.3653 11.5818 73.2311 11.6009C72.9435 11.6431 72.6923 11.7102 72.4775 11.8023C72.2627 11.8943 72.0959 12.019 71.977 12.1762C71.8581 12.3296 71.7987 12.5214 71.7987 12.7515C71.7987 13.0852 71.9195 13.3402 72.1611 13.5166C72.4065 13.6892 72.7172 13.7755 73.093 13.7755Z"/>
</mask>
<path d="M22.5 5.57195V3.51819H32.1763V5.57195H28.5692V15.3H26.107V5.57195H22.5Z" fill="white"/>
<path d="M36.2443 15.4726C35.3354 15.4726 34.553 15.2885 33.8972 14.9203C33.2452 14.5483 32.7428 14.0229 32.3899 13.344C32.0371 12.6614 31.8607 11.8541 31.8607 10.9221C31.8607 10.0131 32.0371 9.21542 32.3899 8.52891C32.7428 7.84241 33.2394 7.30739 33.8799 6.92387C34.5242 6.54035 35.2798 6.34859 36.1465 6.34859C36.7295 6.34859 37.2722 6.44255 37.7746 6.63048C38.2808 6.81457 38.7219 7.09262 39.0977 7.46464C39.4774 7.83665 39.7727 8.30455 39.9837 8.86833C40.1946 9.42827 40.3001 10.0841 40.3001 10.8358V11.5089H32.8387V9.99013H37.9932C37.9932 9.63729 37.9165 9.32472 37.7631 9.05242C37.6097 8.78012 37.3968 8.56727 37.1245 8.41386C36.8561 8.25661 36.5435 8.17799 36.1868 8.17799C35.8148 8.17799 35.485 8.26428 35.1973 8.43687C34.9135 8.60562 34.6911 8.83381 34.53 9.12146C34.3689 9.40526 34.2865 9.72167 34.2826 10.0707V11.5146C34.2826 11.9519 34.3632 12.3296 34.5242 12.6479C34.6892 12.9663 34.9212 13.2117 35.2203 13.3843C35.5195 13.5569 35.8742 13.6432 36.2846 13.6432C36.5569 13.6432 36.8062 13.6048 37.0325 13.5281C37.2588 13.4514 37.4524 13.3364 37.6135 13.183C37.7746 13.0296 37.8973 12.8416 37.9817 12.6192L40.2483 12.7688C40.1333 13.3134 39.8974 13.7889 39.5407 14.1955C39.1879 14.5982 38.7315 14.9126 38.1715 15.1389C37.6154 15.3614 36.973 15.4726 36.2443 15.4726Z" fill="white"/>
<path d="M45.6669 15.4726C44.7617 15.4726 43.9832 15.2808 43.3312 14.8973C42.683 14.5099 42.1845 13.973 41.8355 13.2865C41.4903 12.6 41.3177 11.8099 41.3177 10.9163C41.3177 10.0112 41.4922 9.21734 41.8412 8.53467C42.1941 7.84816 42.6945 7.31315 43.3427 6.92962C43.9909 6.54227 44.7617 6.34859 45.6553 6.34859C46.4262 6.34859 47.1012 6.48857 47.6803 6.76854C48.2595 7.04852 48.7178 7.44163 49.0553 7.94788C49.3928 8.45413 49.5788 9.04859 49.6133 9.73126H47.3007C47.2355 9.29021 47.0629 8.93545 46.7829 8.66698C46.5068 8.39468 46.1443 8.25853 45.6956 8.25853C45.3159 8.25853 44.9842 8.36208 44.7004 8.56918C44.4204 8.77245 44.2018 9.06968 44.0445 9.46087C43.8873 9.85207 43.8087 10.3257 43.8087 10.8818C43.8087 11.4456 43.8854 11.925 44.0388 12.32C44.196 12.7151 44.4166 13.0161 44.7004 13.2232C44.9842 13.4303 45.3159 13.5339 45.6956 13.5339C45.9756 13.5339 46.2268 13.4764 46.4492 13.3613C46.6755 13.2462 46.8615 13.0794 47.0073 12.8608C47.1568 12.6384 47.2546 12.3718 47.3007 12.0612H49.6133C49.5749 12.7362 49.3909 13.3306 49.061 13.8445C48.735 14.3546 48.2844 14.7535 47.7091 15.0411C47.1338 15.3288 46.4531 15.4726 45.6669 15.4726Z" fill="white"/>
<path d="M53.4081 10.1915V15.3H50.9574V3.51819H53.3391V8.02266H53.4426C53.642 7.50107 53.9642 7.09262 54.4091 6.79731C54.854 6.49816 55.412 6.34859 56.0832 6.34859C56.6968 6.34859 57.2318 6.48282 57.6882 6.75129C58.1484 7.01592 58.5051 7.39752 58.7582 7.8961C59.0152 8.39084 59.1418 8.98339 59.1379 9.67373V15.3H56.6872V10.1109C56.6911 9.56634 56.553 9.14255 56.273 8.83957C55.9969 8.53658 55.6095 8.38509 55.1109 8.38509C54.7773 8.38509 54.482 8.45604 54.225 8.59795C53.9719 8.73985 53.7724 8.94695 53.6267 9.21925C53.4848 9.48772 53.4119 9.8118 53.4081 10.1915Z" fill="white"/>
<path d="M60.7955 15.3V13.8388L65.1217 8.48289V8.41961H60.9451V6.46364H68.0729V8.05718L64.0114 13.2808V13.344H68.2225V15.3H60.7955Z" fill="white"/>
<path d="M72.3912 15.4668C71.8274 15.4668 71.325 15.369 70.884 15.1734C70.4429 14.974 70.0939 14.6806 69.8369 14.2933C69.5838 13.9021 69.4572 13.415 69.4572 12.832C69.4572 12.3411 69.5474 11.9288 69.7276 11.5952C69.9079 11.2615 70.1533 10.993 70.464 10.7898C70.7746 10.5865 71.1275 10.4331 71.5225 10.3296C71.9214 10.226 72.3394 10.1531 72.7766 10.1109C73.2906 10.0573 73.7048 10.0074 74.0192 9.96137C74.3337 9.91151 74.5619 9.83864 74.7038 9.74276C74.8457 9.64688 74.9167 9.50498 74.9167 9.31705V9.28254C74.9167 8.91819 74.8016 8.6363 74.5715 8.43687C74.3452 8.23744 74.0231 8.13772 73.605 8.13772C73.164 8.13772 72.8131 8.23552 72.5523 8.43111C72.2915 8.62288 72.1189 8.8645 72.0345 9.15597L69.7679 8.97188C69.883 8.43495 70.1092 7.97089 70.4467 7.57969C70.7842 7.18467 71.2195 6.88168 71.7526 6.67074C72.2896 6.45597 72.9109 6.34859 73.6166 6.34859C74.1075 6.34859 74.5773 6.40611 75.026 6.52117C75.4786 6.63623 75.8793 6.81457 76.2283 7.05619C76.5812 7.29781 76.8592 7.60846 77.0625 7.98815C77.2658 8.364 77.3674 8.81464 77.3674 9.34006V15.3H75.0433V14.0747H74.9742C74.8323 14.3508 74.6425 14.5943 74.4047 14.8053C74.1669 15.0124 73.8812 15.1754 73.5475 15.2943C73.2139 15.4093 72.8284 15.4668 72.3912 15.4668ZM73.093 13.7755C73.4536 13.7755 73.7719 13.7046 74.048 13.5626C74.3242 13.4169 74.5408 13.2213 74.6981 12.9759C74.8553 12.7304 74.934 12.4524 74.934 12.1417V11.204C74.8572 11.2538 74.7518 11.2999 74.6175 11.3421C74.4871 11.3804 74.3395 11.4168 74.1746 11.4514C74.0097 11.482 73.8447 11.5108 73.6798 11.5376C73.5149 11.5607 73.3653 11.5818 73.2311 11.6009C72.9435 11.6431 72.6923 11.7102 72.4775 11.8023C72.2627 11.8943 72.0959 12.019 71.977 12.1762C71.8581 12.3296 71.7987 12.5214 71.7987 12.7515C71.7987 13.0852 71.9195 13.3402 72.1611 13.5166C72.4065 13.6892 72.7172 13.7755 73.093 13.7755Z" fill="white"/>
<path d="M22.5 5.57195V3.51819H32.1763V5.57195H28.5692V15.3H26.107V5.57195H22.5Z" stroke="white" stroke-width="0.0984783" mask="url(#path-1-outside-1_1704_3777)"/>
<path d="M36.2443 15.4726C35.3354 15.4726 34.553 15.2885 33.8972 14.9203C33.2452 14.5483 32.7428 14.0229 32.3899 13.344C32.0371 12.6614 31.8607 11.8541 31.8607 10.9221C31.8607 10.0131 32.0371 9.21542 32.3899 8.52891C32.7428 7.84241 33.2394 7.30739 33.8799 6.92387C34.5242 6.54035 35.2798 6.34859 36.1465 6.34859C36.7295 6.34859 37.2722 6.44255 37.7746 6.63048C38.2808 6.81457 38.7219 7.09262 39.0977 7.46464C39.4774 7.83665 39.7727 8.30455 39.9837 8.86833C40.1946 9.42827 40.3001 10.0841 40.3001 10.8358V11.5089H32.8387V9.99013H37.9932C37.9932 9.63729 37.9165 9.32472 37.7631 9.05242C37.6097 8.78012 37.3968 8.56727 37.1245 8.41386C36.8561 8.25661 36.5435 8.17799 36.1868 8.17799C35.8148 8.17799 35.485 8.26428 35.1973 8.43687C34.9135 8.60562 34.6911 8.83381 34.53 9.12146C34.3689 9.40526 34.2865 9.72167 34.2826 10.0707V11.5146C34.2826 11.9519 34.3632 12.3296 34.5242 12.6479C34.6892 12.9663 34.9212 13.2117 35.2203 13.3843C35.5195 13.5569 35.8742 13.6432 36.2846 13.6432C36.5569 13.6432 36.8062 13.6048 37.0325 13.5281C37.2588 13.4514 37.4524 13.3364 37.6135 13.183C37.7746 13.0296 37.8973 12.8416 37.9817 12.6192L40.2483 12.7688C40.1333 13.3134 39.8974 13.7889 39.5407 14.1955C39.1879 14.5982 38.7315 14.9126 38.1715 15.1389C37.6154 15.3614 36.973 15.4726 36.2443 15.4726Z" stroke="white" stroke-width="0.0984783" mask="url(#path-1-outside-1_1704_3777)"/>
<path d="M45.6669 15.4726C44.7617 15.4726 43.9832 15.2808 43.3312 14.8973C42.683 14.5099 42.1845 13.973 41.8355 13.2865C41.4903 12.6 41.3177 11.8099 41.3177 10.9163C41.3177 10.0112 41.4922 9.21734 41.8412 8.53467C42.1941 7.84816 42.6945 7.31315 43.3427 6.92962C43.9909 6.54227 44.7617 6.34859 45.6553 6.34859C46.4262 6.34859 47.1012 6.48857 47.6803 6.76854C48.2595 7.04852 48.7178 7.44163 49.0553 7.94788C49.3928 8.45413 49.5788 9.04859 49.6133 9.73126H47.3007C47.2355 9.29021 47.0629 8.93545 46.7829 8.66698C46.5068 8.39468 46.1443 8.25853 45.6956 8.25853C45.3159 8.25853 44.9842 8.36208 44.7004 8.56918C44.4204 8.77245 44.2018 9.06968 44.0445 9.46087C43.8873 9.85207 43.8087 10.3257 43.8087 10.8818C43.8087 11.4456 43.8854 11.925 44.0388 12.32C44.196 12.7151 44.4166 13.0161 44.7004 13.2232C44.9842 13.4303 45.3159 13.5339 45.6956 13.5339C45.9756 13.5339 46.2268 13.4764 46.4492 13.3613C46.6755 13.2462 46.8615 13.0794 47.0073 12.8608C47.1568 12.6384 47.2546 12.3718 47.3007 12.0612H49.6133C49.5749 12.7362 49.3909 13.3306 49.061 13.8445C48.735 14.3546 48.2844 14.7535 47.7091 15.0411C47.1338 15.3288 46.4531 15.4726 45.6669 15.4726Z" stroke="white" stroke-width="0.0984783" mask="url(#path-1-outside-1_1704_3777)"/>
<path d="M53.4081 10.1915V15.3H50.9574V3.51819H53.3391V8.02266H53.4426C53.642 7.50107 53.9642 7.09262 54.4091 6.79731C54.854 6.49816 55.412 6.34859 56.0832 6.34859C56.6968 6.34859 57.2318 6.48282 57.6882 6.75129C58.1484 7.01592 58.5051 7.39752 58.7582 7.8961C59.0152 8.39084 59.1418 8.98339 59.1379 9.67373V15.3H56.6872V10.1109C56.6911 9.56634 56.553 9.14255 56.273 8.83957C55.9969 8.53658 55.6095 8.38509 55.1109 8.38509C54.7773 8.38509 54.482 8.45604 54.225 8.59795C53.9719 8.73985 53.7724 8.94695 53.6267 9.21925C53.4848 9.48772 53.4119 9.8118 53.4081 10.1915Z" stroke="white" stroke-width="0.0984783" mask="url(#path-1-outside-1_1704_3777)"/>
<path d="M60.7955 15.3V13.8388L65.1217 8.48289V8.41961H60.9451V6.46364H68.0729V8.05718L64.0114 13.2808V13.344H68.2225V15.3H60.7955Z" stroke="white" stroke-width="0.0984783" mask="url(#path-1-outside-1_1704_3777)"/>
<path d="M72.3912 15.4668C71.8274 15.4668 71.325 15.369 70.884 15.1734C70.4429 14.974 70.0939 14.6806 69.8369 14.2933C69.5838 13.9021 69.4572 13.415 69.4572 12.832C69.4572 12.3411 69.5474 11.9288 69.7276 11.5952C69.9079 11.2615 70.1533 10.993 70.464 10.7898C70.7746 10.5865 71.1275 10.4331 71.5225 10.3296C71.9214 10.226 72.3394 10.1531 72.7766 10.1109C73.2906 10.0573 73.7048 10.0074 74.0192 9.96137C74.3337 9.91151 74.5619 9.83864 74.7038 9.74276C74.8457 9.64688 74.9167 9.50498 74.9167 9.31705V9.28254C74.9167 8.91819 74.8016 8.6363 74.5715 8.43687C74.3452 8.23744 74.0231 8.13772 73.605 8.13772C73.164 8.13772 72.8131 8.23552 72.5523 8.43111C72.2915 8.62288 72.1189 8.8645 72.0345 9.15597L69.7679 8.97188C69.883 8.43495 70.1092 7.97089 70.4467 7.57969C70.7842 7.18467 71.2195 6.88168 71.7526 6.67074C72.2896 6.45597 72.9109 6.34859 73.6166 6.34859C74.1075 6.34859 74.5773 6.40611 75.026 6.52117C75.4786 6.63623 75.8793 6.81457 76.2283 7.05619C76.5812 7.29781 76.8592 7.60846 77.0625 7.98815C77.2658 8.364 77.3674 8.81464 77.3674 9.34006V15.3H75.0433V14.0747H74.9742C74.8323 14.3508 74.6425 14.5943 74.4047 14.8053C74.1669 15.0124 73.8812 15.1754 73.5475 15.2943C73.2139 15.4093 72.8284 15.4668 72.3912 15.4668ZM73.093 13.7755C73.4536 13.7755 73.7719 13.7046 74.048 13.5626C74.3242 13.4169 74.5408 13.2213 74.6981 12.9759C74.8553 12.7304 74.934 12.4524 74.934 12.1417V11.204C74.8572 11.2538 74.7518 11.2999 74.6175 11.3421C74.4871 11.3804 74.3395 11.4168 74.1746 11.4514C74.0097 11.482 73.8447 11.5108 73.6798 11.5376C73.5149 11.5607 73.3653 11.5818 73.2311 11.6009C72.9435 11.6431 72.6923 11.7102 72.4775 11.8023C72.2627 11.8943 72.0959 12.019 71.977 12.1762C71.8581 12.3296 71.7987 12.5214 71.7987 12.7515C71.7987 13.0852 71.9195 13.3402 72.1611 13.5166C72.4065 13.6892 72.7172 13.7755 73.093 13.7755Z" stroke="white" stroke-width="0.0984783" mask="url(#path-1-outside-1_1704_3777)"/>
<path d="M7.41797 7.41797H10.582V10.582H7.41797V7.41797Z" fill="white"/>
<path d="M13.7461 4.25391H4.25391V13.7461H13.7461V4.25391ZM11.6367 11.6367H6.36328V6.36328H11.6367V11.6367Z" fill="white"/>
<path d="M18 10.582H15.8555V9.52734H14.8008V12.6914H15.8555V11.6367H18V10.582Z" fill="white"/>
<path d="M18 6.36328H15.8555V5.30859H14.8008V8.47266H15.8555V7.41797H18V6.36328Z" fill="white"/>
<path d="M6.36328 0V2.14453H5.30859V3.19922H8.47266V2.14453H7.41797V0H6.36328Z" fill="white"/>
<path d="M10.582 0V2.14453H9.52734V3.19922H12.6914V2.14453H11.6367V0H10.582Z" fill="white"/>
<path d="M7.41797 18V15.8555H8.47266V14.8008H5.30859V15.8555H6.36328V18H7.41797Z" fill="white"/>
<path d="M11.6367 18V15.8555H12.6914V14.8008H9.52734V15.8555H10.582V18H11.6367Z" fill="white"/>
<path d="M2.14453 8.47266H3.19922V5.30859H2.14453V6.36328H0V7.41797H2.14453V8.47266Z" fill="white"/>
<path d="M2.14453 12.6914H3.19922V9.52734H2.14453V10.582H0V11.6367H2.14453V12.6914Z" fill="white"/>
</svg>
